<svg aria-hidden="true" style="position: absolute; width: 0; height: 0; overflow: hidden;" version="1.1" xmlns="http://www.w3.org/2000/svg" xmlns:xlink="http://www.w3.org/1999/xlink">
<defs>

<symbol id="icon-burger" viewBox="0 0 32 32">
<path d="M4.799 8.001c0-0.424 0.169-0.831 0.469-1.131s0.707-0.469 1.131-0.469h19.2c0.424 0 0.831 0.169 1.131 0.469s0.469 0.707 0.469 1.131-0.169 0.831-0.469 1.131c-0.3 0.3-0.707 0.469-1.131 0.469h-19.2c-0.424 0-0.831-0.169-1.131-0.469s-0.469-0.707-0.469-1.131z"></path>
<path d="M4.799 16.001c0-0.424 0.169-0.831 0.469-1.131s0.707-0.469 1.131-0.469h19.2c0.424 0 0.831 0.169 1.131 0.469s0.469 0.707 0.469 1.131c0 0.424-0.169 0.831-0.469 1.131s-0.707 0.469-1.131 0.469h-19.2c-0.424 0-0.831-0.169-1.131-0.469s-0.469-0.707-0.469-1.131z"></path>
<path d="M4.799 24.001c0-0.424 0.169-0.831 0.469-1.131s0.707-0.469 1.131-0.469h19.2c0.424 0 0.831 0.169 1.131 0.469s0.469 0.707 0.469 1.131c0 0.424-0.169 0.831-0.469 1.131s-0.707 0.469-1.131 0.469h-19.2c-0.424 0-0.831-0.169-1.131-0.469s-0.469-0.707-0.469-1.131z"></path>
</symbol>

<symbol id="icon-heart-o" viewBox="0 0 28 28">
<path d="M26 9.312c0-4.391-2.969-5.313-5.469-5.313-2.328 0-4.953 2.516-5.766 3.484-0.375 0.453-1.156 0.453-1.531 0-0.812-0.969-3.437-3.484-5.766-3.484-2.5 0-5.469 0.922-5.469 5.313 0 2.859 2.891 5.516 2.922 5.547l9.078 8.75 9.063-8.734c0.047-0.047 2.938-2.703 2.938-5.563zM28 9.312c0 3.75-3.437 6.891-3.578 7.031l-9.734 9.375c-0.187 0.187-0.438 0.281-0.688 0.281s-0.5-0.094-0.688-0.281l-9.75-9.406c-0.125-0.109-3.563-3.25-3.563-7 0-4.578 2.797-7.313 7.469-7.313 2.734 0 5.297 2.156 6.531 3.375 1.234-1.219 3.797-3.375 6.531-3.375 4.672 0 7.469 2.734 7.469 7.313z"></path>
</symbol>

<symbol id="icon-basket" viewBox="0 0 37 32">
<path d="M28.42 8.134h6.053c1.066 0 1.588 0.513 1.588 1.549 0 5.095 0 10.192 0 15.292 0.011 0.905-0.164 1.802-0.513 2.64s-0.868 1.599-1.523 2.239c-0.656 0.64-1.436 1.146-2.295 1.488s-1.779 0.514-2.707 0.504h-20.666c-0.928 0.009-1.848-0.163-2.707-0.505s-1.639-0.848-2.294-1.488c-0.655-0.64-1.173-1.401-1.523-2.239s-0.524-1.735-0.514-2.64v-15.322c0-0.985 0.542-1.52 1.549-1.52h6.097v-0.465c0-1.2 0-2.398 0-3.599 0.003-1.077 0.443-2.109 1.225-2.871s1.84-1.191 2.944-1.194c3.706-0.008 7.412-0.008 11.117 0 1.105 0.003 2.164 0.432 2.945 1.193s1.221 1.794 1.224 2.872c0.006 1.353 0 2.681 0 4.063zM33.282 10.879h-4.862c0 0.902 0 1.777 0 2.65-0.003 0.359-0.152 0.703-0.414 0.955s-0.617 0.393-0.986 0.39c-0.369-0.003-0.721-0.148-0.98-0.404s-0.403-0.602-0.4-0.961c0-0.648 0-1.299 0-1.947v-0.693h-13.851c-0.017 0.031-0.031 0.063-0.040 0.097 0 0.763 0 1.523 0 2.286 0.013 0.225-0.002 0.45-0.046 0.672-0.090 0.314-0.293 0.586-0.572 0.765s-0.615 0.255-0.946 0.213c-0.331-0.042-0.636-0.2-0.858-0.443s-0.347-0.557-0.351-0.883c0-0.898 0-1.796 0-2.698h-4.878v0.364c0 4.531 0 9.062 0 13.593 0 2.54 1.82 4.307 4.429 4.309 6.774 0 13.548 0 20.323 0 0.39 0.003 0.779-0.037 1.159-0.12 2.001-0.459 3.272-2.085 3.272-4.187 0-4.53 0-9.060 0-13.591v-0.366zM25.639 8.117c0-1.299 0-2.578 0-3.858 0-0.968-0.596-1.549-1.608-1.549-3.558 0-7.116 0-10.677 0-1.028 0-1.608 0.571-1.612 1.578 0 1.161 0 2.313 0 3.471 0 0.12 0.016 0.24 0.024 0.35l13.873 0.008z"></path>
</symbol>

<symbol id="icon-search" viewBox="0 0 32 32">
<path d="M19.427 20.427c-1.39 0.99-3.090 1.573-4.927 1.573-4.694 0-8.5-3.806-8.5-8.5s3.806-8.5 8.5-8.5c4.694 0 8.5 3.806 8.5 8.5 0 1.837-0.583 3.537-1.573 4.927l5.585 5.585c0.55 0.55 0.546 1.431-0 1.976l-0.023 0.023c-0.544 0.544-1.431 0.546-1.976 0l-5.585-5.585zM14.5 20c3.59 0 6.5-2.91 6.5-6.5s-2.91-6.5-6.5-6.5c-3.59 0-6.5 2.91-6.5 6.5s2.91 6.5 6.5 6.5v0z"></path>
</symbol>

<symbol id="icon-instagram" viewBox="0 0 32 32">
<path fill="none" stroke="#42272d" style="stroke: var(--color1, #42272d)" stroke-linejoin="miter" stroke-linecap="butt" stroke-miterlimit="4" stroke-width="2.6667" d="M8.889 1.333h14.222c4.173 0 7.556 3.383 7.556 7.556v14.222c0 4.173-3.383 7.556-7.556 7.556h-14.222c-4.173 0-7.556-3.383-7.556-7.556v-14.222c0-4.173 3.383-7.556 7.556-7.556z"></path>
<path fill="none" stroke="#42272d" style="stroke: var(--color1, #42272d)" stroke-linejoin="miter" stroke-linecap="butt" stroke-miterlimit="4" stroke-width="2.6667" d="M22.987 16c0 3.859-3.128 6.987-6.987 6.987s-6.987-3.128-6.987-6.987c0-3.859 3.128-6.987 6.987-6.987s6.987 3.128 6.987 6.987z"></path>
<path d="M26.88 8.32c0 1.060-0.86 1.92-1.92 1.92s-1.92-0.86-1.92-1.92c0-1.060 0.86-1.92 1.92-1.92s1.92 0.86 1.92 1.92z"></path>
</symbol>

</defs>
</svg>

